<?xml version="1.0" standalone="no"?>
<!DOCTYPE svg PUBLIC "-//W3C//DTD SVG 20010904//EN"
 "http://www.w3.org/TR/2001/REC-SVG-20010904/DTD/svg10.dtd">
<svg version="1.0" xmlns="http://www.w3.org/2000/svg"
 width="1096.000000pt" height="1096.000000pt" viewBox="0 0 1096.000000 1096.000000"
 preserveAspectRatio="xMidYMid meet">
<metadata>
Created by potrace 1.14, written by Peter Selinger 2001-2017
</metadata>
<g transform="translate(0.000000,1096.000000) scale(0.100000,-0.100000)"
fill="#000000" stroke="none">
<path d="M7098 10082 c-20 -15 -46 -34 -58 -42 -102 -68 -221 -171 -360 -310
-135 -135 -196 -206 -298 -349 -9 -13 -28 -36 -40 -52 -13 -16 -20 -29 -15
-29 4 0 3 -4 -3 -8 -5 -4 -32 -43 -59 -87 -27 -44 -54 -83 -60 -87 -5 -4 -7
-8 -2 -8 4 0 -3 -17 -16 -37 -12 -21 -31 -57 -42 -80 -11 -24 -24 -43 -28 -43
-5 0 -5 -5 -1 -11 3 -6 2 -14 -3 -18 -11 -7 -107 -238 -103 -249 0 -1 -7 -16
-15 -32 -9 -17 -13 -30 -10 -30 3 0 1 -9 -5 -21 -18 -32 -80 -269 -95 -359 -2
-14 -6 -34 -8 -45 -3 -11 -7 -41 -11 -67 l-7 -46 -115 -22 c-63 -12 -127 -24
-142 -26 -15 -3 -33 -7 -41 -9 -7 -3 -32 -8 -55 -10 -46 -6 -81 -13 -81 -15 0
-5 -55 -6 -62 -1 -9 7 -78 110 -84 126 -2 6 -9 17 -15 25 -46 56 -114 153
-114 160 0 4 -4 10 -8 12 -4 2 -23 23 -42 48 -19 24 -39 50 -45 56 -5 6 -30
36 -55 65 -103 124 -283 308 -400 409 -35 30 -71 62 -80 70 -8 9 -51 42 -95
75 -44 33 -82 62 -85 65 -7 9 -226 152 -295 193 -197 117 -546 263 -596 250
-43 -12 -209 -204 -209 -242 0 -6 -4 -11 -10 -11 -5 0 -10 -4 -10 -9 0 -4 -18
-41 -41 -82 -22 -41 -40 -76 -41 -79 0 -3 -13 -31 -29 -64 -16 -32 -29 -64
-29 -72 0 -8 -4 -14 -10 -14 -5 0 -10 -4 -10 -9 0 -5 -4 -20 -9 -33 -5 -13 -9
-27 -10 -33 -1 -5 -9 -20 -17 -32 -8 -13 -11 -23 -7 -23 5 0 3 -4 -2 -8 -6 -4
-25 -45 -44 -92 -18 -47 -40 -99 -47 -117 -8 -17 -14 -34 -14 -39 0 -6 -16
-48 -55 -149 -4 -11 -9 -24 -11 -30 -2 -5 -29 -85 -62 -177 -47 -133 -56 -170
-48 -186 19 -34 50 -66 101 -107 28 -22 55 -43 60 -48 24 -21 333 -185 348
-185 1 -1 13 -5 27 -10 74 -29 127 -50 145 -57 11 -4 25 -9 30 -10 6 -2 53
-17 105 -35 52 -18 100 -33 105 -34 6 -2 30 -9 55 -16 25 -7 50 -15 55 -16 6
-2 51 -14 100 -27 51 -14 105 -23 125 -21 51 7 97 12 160 19 30 3 66 7 80 10
33 5 116 16 160 20 19 2 49 6 66 9 17 3 57 9 90 12 32 3 70 8 84 10 30 4 106
14 140 19 85 11 127 17 140 20 8 2 40 7 70 10 57 7 67 8 189 30 41 7 85 12 98
10 13 -1 23 1 23 5 0 3 12 7 28 7 26 2 87 10 87 13 0 1 13 3 29 5 15 2 25 1
22 -2 -3 -4 -16 -7 -29 -9 -12 -1 -22 -3 -22 -4 0 -1 -9 -3 -20 -5 -11 -1 -33
-5 -50 -9 -16 -4 -48 -9 -70 -12 -53 -8 -75 -11 -105 -18 -39 -9 -67 -14 -185
-36 -60 -11 -121 -22 -135 -25 -14 -2 -36 -7 -50 -10 -14 -2 -38 -7 -55 -10
-16 -2 -55 -9 -85 -15 -30 -6 -71 -13 -90 -16 -19 -2 -42 -7 -50 -9 -8 -2 -31
-7 -50 -10 -19 -3 -47 -8 -62 -11 -15 -3 -39 -7 -55 -9 -15 -2 -39 -7 -53 -10
-14 -4 -36 -8 -50 -10 -14 -2 -25 -4 -25 -5 0 -2 -52 -11 -130 -22 -5 -1 -26
-5 -45 -10 -19 -5 -49 -11 -67 -13 -18 -3 -63 -11 -100 -19 -37 -7 -75 -14
-83 -14 -8 0 -25 -3 -37 -6 -55 -14 -70 -17 -98 -20 -16 -2 -41 -6 -55 -10
-14 -3 -36 -8 -50 -10 -21 -3 -76 -13 -180 -33 -14 -2 -59 -11 -100 -19 -41
-8 -86 -17 -100 -19 -47 -7 -95 -15 -145 -25 -64 -13 -74 -15 -175 -33 -47 -9
-98 -18 -115 -21 -16 -3 -55 -11 -85 -17 -30 -6 -64 -12 -75 -14 -11 -2 -20
-4 -20 -5 0 -1 -13 -3 -30 -5 -32 -3 -90 -13 -115 -20 -8 -2 -35 -7 -60 -10
-24 -4 -47 -8 -50 -10 -3 -2 -23 -6 -45 -9 -22 -3 -64 -11 -92 -17 -29 -6 -65
-12 -80 -14 -16 -2 -28 -4 -28 -5 0 -3 -51 -12 -143 -26 -20 -3 -53 -9 -72
-14 -19 -5 -69 -14 -110 -21 -41 -7 -77 -13 -80 -14 -6 -1 -111 -18 -125 -20
-5 -1 -21 -4 -35 -8 -25 -6 -74 -15 -120 -22 -14 -1 -25 -4 -25 -5 0 -1 -13
-4 -30 -5 -16 -2 -41 -6 -55 -9 -14 -4 -38 -9 -55 -11 -16 -3 -84 -16 -150
-30 -66 -13 -136 -26 -155 -29 -37 -6 -68 -12 -110 -21 -14 -3 -36 -8 -50 -10
-24 -4 -64 -11 -105 -19 -20 -4 -92 -16 -130 -22 -11 -2 -27 -5 -35 -7 -8 -2
-32 -7 -53 -12 -28 -5 -36 -11 -33 -24 21 -76 36 -153 31 -160 -3 -5 -1 -11 5
-13 5 -1 11 -16 14 -33 2 -16 6 -37 8 -45 33 -99 44 -165 26 -154 -7 4 -8 3
-4 -5 4 -6 11 -9 16 -6 4 3 10 -10 14 -28 15 -81 21 -107 29 -127 4 -8 9 -28
11 -45 2 -16 6 -37 9 -45 4 -8 9 -26 11 -40 3 -14 9 -40 15 -59 6 -19 8 -38 5
-42 -3 -5 -1 -9 4 -9 5 0 9 -12 9 -27 -1 -16 5 -38 12 -51 7 -13 13 -39 14
-58 1 -19 5 -34 10 -34 4 0 7 -12 7 -26 0 -16 -4 -23 -12 -18 -7 4 -8 3 -4 -5
4 -6 12 -8 18 -5 7 5 9 1 5 -9 -3 -10 -2 -17 3 -17 6 0 10 -9 10 -21 0 -11 5
-30 11 -41 8 -16 8 -19 -1 -13 -9 6 -9 2 0 -14 11 -22 20 -50 24 -81 1 -9 6
-21 10 -28 4 -7 5 -16 2 -19 -3 -3 -1 -12 5 -20 6 -7 9 -13 6 -13 -3 0 -1 -15
3 -32 39 -152 46 -188 42 -193 -3 -3 0 -5 7 -5 9 0 12 -9 9 -25 -3 -14 -1 -25
4 -25 5 0 8 -6 5 -12 -2 -7 0 -21 5 -32 6 -10 11 -28 13 -40 2 -11 7 -34 10
-51 4 -16 8 -34 9 -40 1 -5 5 -19 9 -30 3 -11 9 -31 11 -45 3 -14 11 -45 17
-70 12 -46 17 -70 21 -105 2 -11 6 -22 10 -25 3 -3 8 -23 10 -45 2 -22 5 -42
8 -45 8 -7 32 -101 34 -130 0 -14 3 -27 7 -30 8 -7 40 -141 42 -175 1 -16 6
-33 10 -36 4 -3 10 -18 12 -32 8 -42 14 -69 25 -112 11 -43 15 -57 34 -143 2
-10 11 -41 19 -68 8 -27 13 -57 11 -66 -1 -10 1 -18 6 -18 4 0 10 -15 13 -32
3 -18 10 -53 16 -78 6 -25 14 -56 16 -70 3 -14 10 -40 16 -58 6 -18 8 -40 5
-48 -3 -9 -1 -12 4 -9 6 3 11 -1 11 -9 2 -23 4 -30 10 -41 3 -5 4 -20 3 -33 0
-12 3 -22 9 -22 5 0 3 -8 -4 -17 -10 -11 -10 -14 -1 -9 8 4 13 1 14 -11 2 -33
16 -89 28 -118 5 -11 11 -36 14 -55 8 -53 18 -94 31 -123 4 -10 5 -21 1 -24
-3 -3 -2 -11 3 -17 5 -6 12 -28 15 -49 3 -21 11 -47 16 -58 6 -10 9 -19 6 -19
-2 0 0 -16 6 -36 5 -20 12 -45 14 -55 2 -11 6 -27 9 -37 21 -79 55 -221 60
-247 3 -11 16 -65 30 -120 14 -55 27 -109 30 -120 2 -11 11 -49 20 -85 9 -36
18 -72 20 -80 2 -8 20 -80 40 -160 20 -79 38 -153 40 -165 2 -11 4 -20 5 -20
1 0 3 -9 5 -20 4 -19 14 -61 35 -145 5 -19 12 -48 16 -65 4 -16 8 -34 10 -40
3 -11 3 -10 34 -140 12 -49 23 -97 25 -105 2 -8 19 -78 38 -155 19 -77 38
-152 41 -166 5 -25 8 -26 43 -19 21 5 52 11 68 13 17 3 59 10 95 17 36 6 76
13 90 15 14 2 25 4 25 5 0 2 20 6 65 14 19 3 73 13 120 21 47 9 97 18 112 20
26 4 119 20 168 30 14 3 50 10 80 16 30 6 69 13 85 16 44 8 60 11 60 13 0 1
11 3 25 5 91 12 117 16 130 22 8 3 22 7 30 8 8 1 31 5 50 8 19 4 44 9 55 11
11 2 43 7 70 10 51 7 104 15 140 23 11 2 34 6 50 8 42 7 64 11 110 24 22 6 58
13 80 16 22 4 58 10 80 15 22 5 56 11 75 15 19 3 46 8 60 10 84 17 126 25 160
30 14 2 39 7 55 10 78 15 133 25 160 30 41 7 125 23 151 29 12 2 37 7 55 10
19 3 44 8 56 10 11 3 43 8 70 12 54 9 62 11 66 14 1 1 13 3 27 5 14 1 39 5 55
9 17 3 48 8 70 11 22 4 48 8 57 11 28 8 61 14 101 19 21 2 41 6 45 9 4 2 28 7
52 11 25 3 52 8 60 10 8 2 29 7 45 9 17 3 64 12 105 20 41 8 78 12 83 9 4 -2
7 1 7 7 0 6 4 8 10 5 5 -3 27 -1 47 4 21 6 54 13 73 16 19 3 58 10 85 15 28 6
64 12 80 15 17 2 44 7 60 10 17 4 41 8 55 10 14 2 25 4 25 5 0 1 11 3 25 6 37
6 252 46 275 51 11 2 32 6 48 8 65 11 84 14 112 20 95 18 194 36 225 41 19 3
42 7 50 10 8 4 33 8 55 10 22 2 46 6 54 9 8 3 30 8 50 11 20 2 47 7 61 10 23
6 36 8 93 18 12 2 38 7 57 11 19 3 49 8 65 10 17 2 31 4 33 6 4 3 89 20 122
24 15 2 113 21 160 30 29 6 83 15 114 19 11 2 28 6 36 9 8 4 33 9 55 11 22 3
40 5 40 6 0 1 14 4 30 6 45 7 70 12 70 14 0 1 15 3 34 6 35 4 213 38 291 54
25 6 68 12 95 15 49 5 74 9 125 19 14 2 43 7 65 10 22 4 47 8 55 11 8 2 33 7
55 11 22 3 45 7 50 9 18 4 79 15 107 19 15 3 31 7 35 9 5 3 31 7 58 11 52 6
90 13 90 16 0 2 22 7 60 15 17 3 37 8 45 10 8 2 31 7 50 10 39 6 122 22 160
29 13 3 42 8 65 11 22 4 57 10 77 16 20 5 40 9 45 8 4 -1 11 0 16 1 4 1 16 4
27 5 11 1 21 3 23 5 4 3 49 11 142 25 22 4 56 10 75 15 19 5 53 12 75 15 22 4
58 10 80 15 22 4 47 8 55 8 8 0 26 3 40 7 14 3 36 8 50 11 14 2 50 9 80 16 30
6 66 12 80 14 14 1 72 12 130 23 58 11 119 23 135 26 17 3 46 8 65 11 19 2 42
7 50 9 8 2 31 7 50 10 19 3 42 8 50 10 8 2 38 7 65 11 28 3 53 8 56 10 3 2 21
6 40 9 19 3 57 10 84 15 28 6 64 13 80 15 17 3 55 10 85 16 30 6 64 12 75 14
11 1 38 6 60 10 22 4 46 7 53 8 6 0 12 4 12 9 0 5 4 7 9 3 16 -9 23 32 12 69
-5 20 -8 47 -7 61 2 14 -1 25 -5 25 -5 0 -8 3 -7 8 0 4 -2 14 -5 22 -4 8 -8
29 -11 45 -2 17 -5 30 -6 30 -3 0 -11 39 -15 70 -3 27 -29 176 -40 235 -3 14
-8 48 -11 75 -7 61 -12 90 -14 90 -2 0 -8 34 -15 85 -3 25 -9 68 -15 95 -5 28
-12 68 -15 89 -3 21 -7 48 -10 60 -2 12 -7 37 -10 56 -2 19 -6 44 -9 55 -2 11
-7 40 -10 65 -3 25 -8 56 -11 70 -2 14 -7 41 -9 60 -5 34 -12 70 -16 80 -1 3
-2 8 -1 12 0 4 -17 117 -40 250 -22 134 -42 259 -44 278 -2 19 -6 45 -9 56 -4
22 -11 64 -22 132 -6 41 -11 74 -19 112 -7 40 -56 342 -61 380 -4 33 -7 48
-17 95 -4 18 -8 40 -23 145 -4 31 -10 64 -18 110 -10 59 -16 93 -21 130 -3 19
-8 51 -11 70 -4 19 -8 44 -10 55 -2 11 -6 36 -9 55 -3 19 -8 53 -11 75 -6 47
-12 80 -14 80 -1 0 -3 11 -5 25 -1 14 -8 60 -15 103 -7 43 -10 80 -7 83 3 3
-1 20 -8 37 -7 18 -14 53 -14 77 -1 58 -13 129 -25 149 -4 5 -9 33 -12 63 -3
29 -8 56 -10 59 -2 4 -6 31 -10 60 -3 30 -8 57 -10 61 -2 3 -7 28 -10 55 -3
26 -7 55 -9 63 -2 8 -7 33 -10 55 -3 23 -8 52 -10 65 -3 14 -14 81 -25 150
-11 69 -22 136 -25 150 -2 14 -6 41 -9 60 -2 19 -7 46 -10 60 -3 14 -8 41 -11
60 -18 126 -33 215 -35 215 -1 0 -3 11 -5 25 -1 14 -6 48 -10 75 -5 28 -9 62
-9 78 -1 15 -3 27 -6 27 -3 0 -7 15 -9 33 -4 44 -8 72 -10 72 -1 0 -4 14 -6
30 -4 29 -22 143 -31 195 -2 14 -7 41 -10 60 -3 19 -12 71 -20 115 -7 44 -14
84 -14 88 0 5 -5 5 -10 2 -10 -6 -34 -12 -90 -21 -14 -2 -34 -6 -45 -8 -11 -2
-36 -7 -55 -10 -19 -4 -93 -18 -164 -31 -71 -14 -132 -22 -137 -19 -5 3 -9 1
-9 -3 0 -5 -10 -9 -22 -10 -13 0 -36 -3 -53 -7 -16 -3 -43 -8 -60 -12 -16 -3
-86 -16 -155 -29 -69 -13 -141 -27 -160 -30 -19 -3 -42 -8 -50 -10 -8 -2 -33
-6 -55 -10 -22 -3 -47 -7 -55 -10 -8 -2 -31 -6 -50 -9 -19 -3 -46 -8 -60 -11
-14 -3 -38 -8 -55 -10 -16 -3 -88 -16 -160 -30 -71 -14 -147 -27 -169 -31 -21
-3 -47 -8 -57 -10 -52 -11 -66 -14 -103 -20 -22 -3 -44 -8 -47 -10 -4 -2 -27
-6 -51 -9 -23 -2 -54 -7 -68 -10 -28 -6 -35 -8 -180 -34 -58 -11 -118 -22
-135 -25 -16 -3 -43 -8 -60 -11 -16 -3 -100 -19 -185 -35 -85 -16 -171 -32
-190 -34 -19 -3 -35 -6 -35 -7 0 -1 -9 -3 -20 -5 -24 -4 -57 -10 -110 -19 -22
-4 -46 -8 -52 -8 -7 0 -13 -3 -13 -6 0 -3 -17 -7 -38 -8 -20 -1 -59 -7 -87
-13 -27 -6 -61 -13 -75 -15 -14 -3 -52 -10 -85 -16 -140 -27 -181 -32 -172
-23 4 4 13 9 20 10 7 2 48 12 92 24 44 12 85 23 90 24 6 2 23 8 38 14 16 7 37
12 48 12 10 0 19 4 19 8 0 4 20 13 45 20 44 12 126 45 155 63 8 5 22 12 30 15
68 26 342 177 376 208 31 26 44 36 49 36 8 0 142 101 172 129 12 12 24 21 27
21 5 0 69 59 159 146 26 26 47 51 47 57 0 6 3 8 6 4 4 -3 27 20 52 51 26 31
51 62 57 67 19 16 75 92 75 100 0 4 -10 17 -22 29 -13 12 -50 52 -83 91 -33
38 -67 76 -75 85 -8 9 -31 36 -49 60 -19 23 -40 48 -46 54 -5 6 -30 36 -55 66
-51 62 -89 107 -107 126 -7 7 -13 16 -13 21 -1 4 -19 26 -40 48 -22 22 -40 46
-40 53 0 7 -4 10 -10 7 -5 -3 -10 0 -10 7 0 8 -9 20 -20 28 -11 8 -20 19 -20
25 0 6 -9 17 -20 25 -11 8 -20 20 -20 26 0 7 -4 14 -9 16 -5 2 -55 59 -111
128 -56 69 -106 127 -111 128 -5 2 -9 9 -9 15 0 7 -18 32 -40 57 -61 68 -64
72 -80 96 l-15 22 -37 -26z m-529 -2206 c-10 -10 -69 -13 -69 -4 0 6 6 8 13 5
6 -2 21 -1 32 3 19 7 33 5 24 -4z m-86 -17 c-8 -8 -13 -7 -18 2 -5 8 -4 10 3
5 7 -4 12 -2 12 5 0 7 3 9 7 6 4 -4 2 -12 -4 -18z m-58 -8 c-9 -8 -36 -10 -30
-2 2 4 11 8 20 8 8 0 13 -3 10 -6z m-935 -171 c0 -5 -5 -10 -11 -10 -5 0 -7 5
-4 10 3 6 8 10 11 10 2 0 4 -4 4 -10z"/>
<path d="M259 6473 c-13 -16 -12 -17 4 -4 9 7 17 15 17 17 0 8 -8 3 -21 -13z"/>
<path d="M430 6242 c0 -5 7 -9 15 -9 8 0 12 4 9 9 -3 4 -9 8 -15 8 -5 0 -9 -4
-9 -8z"/>
</g>
</svg>
