<svg width="24" height="24" viewBox="0 0 24 24" fill="none" xmlns="http://www.w3.org/2000/svg">
<path d="M24 12C24 5.37258 18.6274 0 12 0C5.37258 0 0 5.37258 0 12C0 17.9895 4.38822 22.954 10.125 23.8542V15.4688H7.07813V12H10.125V9.35626C10.125 6.34875 11.9165 4.68751 14.6576 4.68751C15.9705 4.68751 17.3438 4.92188 17.3438 4.92188V7.875H15.8306C14.3399 7.875 13.875 8.80002 13.875 9.74901V12H17.2031L16.6711 15.4688H13.875V23.8542C19.6118 22.954 24 17.9895 24 12Z" fill="#333333"/>
<path d="M16.6711 15.4687L17.2031 12H13.875V9.74898C13.875 8.80001 14.3399 7.875 15.8306 7.875H17.3438V4.92187C17.3438 4.92187 15.9705 4.6875 14.6576 4.6875C11.9165 4.6875 10.125 6.34874 10.125 9.35625V12H7.07812V15.4687H10.125V23.8542C10.7453 23.9514 11.3722 24.0002 12 24C12.6379 24 13.264 23.9501 13.875 23.8542V15.4687H16.6711Z" fill="white"/>
</svg>
