<svg width="137" height="117" viewBox="0 0 137 117" fill="none" xmlns="http://www.w3.org/2000/svg">
<path d="M4.74316 42.8792L22.6352 115.96L136.612 94.8599L124.51 20.7097L4.74316 42.8792Z" fill="#FF725E"/>
<path d="M11.6304 62.1533L13.5344 62.8575L12.1521 61.3969L16.0903 59.806L11.839 59.493L12.465 57.6151L11.1087 58.9974L9.38741 55.0591L9.20482 59.3365C9.21588 59.4144 9.21588 59.4934 9.20482 59.5712H9.04834L9.43955 61.1883L9.83076 62.8053L11.5522 66.9263L11.6304 62.1533Z" fill="white"/>
<path d="M24.9046 97.8852L20.6532 97.5461L21.2793 95.6682L19.923 97.0244L18.1755 93.1122V96.7636L18.4103 97.7026L19.0883 100.519L19.6882 102.971L20.4968 104.927L20.6794 100.389L22.6094 101.119L21.201 99.6326L24.9046 97.8852Z" fill="white"/>
<path d="M42.7198 110.222L43.3458 108.344L41.9895 109.7L40.242 105.788L40.0855 110.065V110.274L38.1033 109.648L39.5117 110.952L35.5474 112.778H39.9291H40.1377L43.2153 112.204L47.1798 110.613L42.9284 110.248L42.7198 110.222Z" fill="white"/>
<path d="M44.1269 60.7709L48.0652 59.18L43.8139 58.8669H43.6835L44.3356 57.0152L42.9793 58.3714L41.2579 54.4331L41.0754 58.7105C41.0864 58.7883 41.0864 58.8673 41.0754 58.9452L39.0931 58.3192L40.5016 59.6233L36.5371 61.4491H40.9449H41.1014L40.319 63.5617L41.8057 62.0489L43.5271 66.1699L43.6835 61.6056L45.5875 62.3097L44.1269 60.7709Z" fill="white"/>
<path d="M57.3767 35.7324L61.3149 34.1415L57.0637 33.8285L57.2723 33.2025L56.2812 33.3851L54.3512 33.7242H54.1686L53.2036 33.9068L53.7774 34.4545L49.813 36.2802H54.2207H54.3773L53.3601 38.5232L54.8467 37.0365L56.542 41.1314L56.6985 36.5932L58.6025 37.3235L57.2202 35.8368L57.3767 35.7324Z" fill="white"/>
<path d="M70.1577 73.1596L65.9063 72.8206L66.5323 70.9427L65.1761 72.299L63.4286 68.3867L63.2721 72.6641C63.2721 72.6641 63.2721 72.7945 63.2721 72.8728L61.2899 72.2468L62.6983 73.5508L58.7339 75.3766H63.1156H63.2721L62.5158 77.4892L64.0024 75.9764L65.6977 80.0713L65.8802 75.5331L67.8103 76.2372L66.4019 74.7507L70.1577 73.1596Z" fill="white"/>
<path d="M135.387 92.1731L133.639 88.2347L133.483 92.5122C133.494 92.59 133.494 92.669 133.483 92.7469L131.501 92.1209L132.909 93.425L128.945 95.2507H133.327H133.509L136.743 94.6508V94.5204L136.43 92.6164H136.3V92.4078L136.143 91.4688L135.517 92.1209L135.387 92.1731Z" fill="white"/>
<path d="M97.4364 61.6837L101.375 60.0926L97.1234 59.7797L97.7493 57.9018L96.4192 59.2841L94.6978 55.3458L94.5152 59.6232C94.5263 59.701 94.5263 59.78 94.5152 59.8579L92.533 59.232L93.9414 60.5361L89.9771 62.3618H94.3849H94.5413L93.7588 64.4744L95.2455 62.9616L96.9669 67.0826L97.1234 62.5183L99.0274 63.2225L97.6451 61.7619L97.4364 61.6837Z" fill="white"/>
<path d="M126.988 45.0176L125.24 41.1053L125.084 45.3828C125.084 45.3828 125.084 45.5132 125.084 45.5914L123.128 44.9655L124.536 46.2695L120.572 48.0953H124.954H125.11L124.354 50.2339L125.84 48.7212L127.536 52.8161L127.718 48.2778L129.205 48.8256V48.4604L128.292 47.4954L128.97 47.2346L128.709 45.6436H127.979L128.527 43.9743L127.249 45.2263L126.988 45.0176Z" fill="white"/>
<path d="M120.415 24.0739L124.353 22.4829L120.102 22.1699L120.31 21.5439L119.319 21.7265L117.389 22.0916H117.233L116.242 22.2742L116.815 22.848L112.851 24.6737H117.259H117.415L116.659 26.7863L118.146 25.2736L119.841 29.3945L119.997 24.8302L121.928 25.5344L120.519 24.0739H120.415Z" fill="white"/>
<path d="M77.7995 98.7719L73.5482 98.4589H73.4178L74.0438 96.6071L72.7137 97.9634L70.9662 94.025L70.8097 98.3025C70.8207 98.3803 70.8207 98.4593 70.8097 98.5372L68.8274 97.9112L70.2359 99.2153L66.2715 101.041H70.6793H70.8358L70.0533 103.154L71.54 101.641L73.2352 105.762L73.4178 101.197L75.3218 101.902L73.9395 100.441L77.7995 98.7719Z" fill="white"/>
<path d="M53.6985 90.0868L49.4472 89.7478H49.3168L49.9428 87.8699L48.6126 89.2261L46.8652 85.3138L46.7087 89.5912V89.7999L44.7264 89.174L46.1349 90.478L42.1704 92.3037H46.5522H46.7087L45.9523 94.4424L47.439 92.9296L49.1343 97.0245L49.3168 92.4863L51.2208 93.1905L49.8384 91.7039L53.6985 90.0868Z" fill="white"/>
<path d="M30.2513 75.5853L33.1725 74.4117L30.0426 74.1769L30.5121 72.7946L29.521 73.7857L28.243 70.8906L28.1126 74.0465V74.203L26.6781 73.7335L27.6953 74.6985L24.7742 76.0548H28.0083H28.1386L27.5648 77.6197L28.6603 76.4982L29.9383 79.5498V76.1852L31.3467 76.7069L30.3296 75.6375L30.2513 75.5853Z" fill="white"/>
<path d="M69.7378 51.2513H72.998L72.4242 52.7901L73.5197 51.6946L74.7976 54.7201V51.3556L76.2061 51.8772L75.1889 50.7818L78.084 49.6081L74.9541 49.3734L75.4236 47.991L74.4325 49.0082L73.1545 46.1132L73.0241 49.269C73.0241 49.269 73.0241 49.269 73.0241 49.4255L71.6157 48.9561L72.6329 49.9211L69.7378 51.2513Z" fill="white"/>
<path d="M104.792 38.3148L105.261 36.9324L104.27 37.9496L102.992 35.0546V38.2104V38.3669L101.558 37.8975L102.575 38.8625L99.6538 40.2187H102.888H102.914L102.34 41.7836L103.436 40.6881L104.714 43.7136V40.3491L106.122 40.8968L105.105 39.8014L108.13 38.5234L105.001 38.2887L104.792 38.3148Z" fill="white"/>
<path d="M86.0659 30.881L85.4921 32.446L86.5875 31.3505L87.8655 34.376V31.0114L89.2739 31.5331L88.2567 30.4637L91.1779 29.29L88.048 29.0553L88.5176 27.673L87.5264 28.6641L87.083 27.673L86.1441 27.8556V28.9249V29.0814L84.6835 28.612L85.7268 29.577L82.8057 30.9332L86.0659 30.881Z" fill="white"/>
<path d="M89.3506 83.3575L92.2457 82.1838L89.1159 81.9491L89.5854 80.5668L88.5943 81.5579L87.3162 78.6628L87.1858 81.8187C87.1858 81.8187 87.1858 81.8187 87.1858 81.9752L85.7253 81.5057L86.7424 82.4707L83.8213 83.827H87.0815L86.5077 85.3919L87.6032 84.2704L88.8811 87.3219V83.9574L90.2896 84.479L89.3506 83.3575Z" fill="white"/>
<path d="M114.155 68.8042L117.05 67.6306L113.92 67.3958L114.364 66.0135L113.373 67.0306L112.095 64.1356L111.964 67.2915C111.964 67.2915 111.964 67.2915 111.964 67.448L110.504 67.0046L111.521 67.9696L108.6 69.2997H111.86L111.312 70.8386L112.381 69.7432L113.659 72.7687V69.4041L115.068 69.9258L114.051 68.8303L114.155 68.8042Z" fill="white"/>
<path d="M121.171 85.8356L118.041 85.6008L118.51 84.2185L117.519 85.2096L116.241 82.3146L115.954 85.4704C115.954 85.4704 115.954 85.4704 115.954 85.6269L114.52 85.1575L115.537 86.1225L112.616 87.4787H115.954L115.38 89.0436L116.476 87.9221L117.754 90.9736V87.6092L119.162 88.1307L118.145 87.0614L121.171 85.8356Z" fill="white"/>
<path d="M131.787 69.43L130.352 68.9606L131.369 69.9256L128.448 71.2818H131.604H131.734L131.161 72.8467L132.256 71.7252L133.091 73.7335L132.7 71.2818L132.413 69.5083L131.891 66.3524V69.1953L131.787 69.43Z" fill="white"/>
<path d="M104.479 99.9455L104.948 98.5632L103.957 99.5804L102.679 96.6853L102.549 99.8412C102.56 99.8928 102.56 99.9462 102.549 99.9977L101.088 99.5543L102.131 100.519L99.1841 101.876L102.679 101.224L104.479 100.884L107.817 100.259L104.661 100.024L104.479 99.9455Z" fill="white"/>
<path d="M38.1794 39.9319H38.3099L37.7361 41.4968L38.8315 40.3753L40.1095 43.4269V40.0623L41.5179 40.584L40.5007 39.4885L43.4219 38.3149L40.292 38.0801L40.7615 36.6977L39.7704 37.6889L39.2488 36.5413L38.4141 36.6977V37.9497V38.1062L36.9797 37.6367L37.9968 38.6017L35.0757 39.958L38.1794 39.9319Z" fill="white"/>
<path d="M17.2351 42.957L16.6874 44.5219L17.7828 43.4265L19.0347 46.452L19.1652 43.0874L20.5996 43.6351L19.5564 42.5397L22.4514 41.366L19.452 41.1313L19.765 40.1924H19.4259L18.9044 40.714L18.7479 40.3749L17.522 40.6096V40.9748C17.522 40.9748 17.522 40.9748 17.522 41.1313L16.4787 40.8183H16.244L17.1047 41.6268L14.1575 42.957H17.2351Z" fill="white"/>
<g opacity="0.3">
<path opacity="0.3" d="M26.1162 41.4434L43.1253 112.463L23.4525 113.791L1.66591 43.1213L26.1162 41.4434Z" fill="#333333"/>
</g>
<path d="M13.2996 41.288L29.8875 114.63L33.8258 113.899L20.159 40.01L13.2996 41.288Z" fill="#455A64"/>
<path d="M79.2828 28.9962L69.7939 30.7532L83.4745 104.639L92.9634 102.882L79.2828 28.9962Z" fill="#455A64"/>
<path d="M34.0342 26.317C34.0342 26.317 39.7722 8.32062 43.3454 7.66858C43.3454 7.66858 56.8296 10.8766 67.0797 27.2559L73.2349 26.1083C73.9234 20.9781 75.7016 16.0546 78.4502 11.6685C81.1989 7.2824 84.8543 3.53526 89.1709 0.678711C89.1709 0.678711 101.56 16.0147 101.847 15.78C96.9965 22.1703 90.0377 26.6339 82.207 28.3774C69.0358 31.429 49.4746 33.5937 49.4746 33.5937C49.4746 33.5937 36.851 30.6987 34.0342 26.317Z" fill="#455A64"/>
<g opacity="0.3">
<path opacity="0.3" d="M76.4673 25.8063C76.4673 25.8063 89.2965 18.3166 101.087 18.2182C101.114 18.2204 89.7956 28.1524 76.4673 25.8063Z" fill="#333333"/>
</g>
<g opacity="0.3">
<path opacity="0.3" d="M35.0806 25.9275C35.0806 25.9275 53.6698 25.6475 64.8228 31.1349C64.8221 31.081 47.6716 33.5703 35.0806 25.9275Z" fill="#333333"/>
</g>
</svg>
