<svg width="156" height="138" viewBox="0 0 156 138" fill="none" xmlns="http://www.w3.org/2000/svg">
<path d="M18.7752 43.6336L25.6914 118.554L141.534 114.498L140.502 39.3734L18.7752 43.6336Z" fill="#3F525B"/>
<path d="M22.7442 63.7128L24.5235 64.6902L23.3717 63.0417L27.5016 62.0491L23.3429 61.1124L24.2391 59.3474L22.6937 60.5145L21.5722 56.3654L20.7606 60.5691C20.7601 60.6477 20.7484 60.7258 20.726 60.8012L20.5712 60.7781L20.7196 62.4352L20.868 64.0923L21.9627 68.4221L22.7442 63.7128Z" fill="white"/>
<path d="M30.6022 101.012L26.4474 100.049L27.3436 98.2845L25.8021 99.4258L24.6509 95.2986L24.1123 98.91L24.2059 99.8734L24.4611 102.759L24.6928 105.273L25.2039 107.327L26.0539 102.865L27.8551 103.872L26.6814 102.194L30.6022 101.012Z" fill="white"/>
<path d="M46.4029 115.841L47.2989 114.076L45.7575 115.218L44.6062 111.09L43.8205 115.298L43.7897 115.504L41.9215 114.593L43.1222 116.09L38.9318 117.311L43.2656 117.958L43.4719 117.988L46.6005 117.875L50.7563 116.886L46.6053 115.898L46.4029 115.841Z" fill="white"/>
<path d="M55.0889 67.1391L59.2189 66.1465L55.0603 65.2098L54.9313 65.1905L55.8494 63.4552L54.3079 64.5965L53.1862 60.4474L52.3748 64.651C52.3742 64.7297 52.3626 64.8078 52.3401 64.8832L50.4719 63.9717L51.6726 65.4693L47.4822 66.6903L51.8418 67.3405L51.9965 67.3635L50.911 69.3376L52.6046 68.0607L53.6993 72.3905L54.5273 67.8992L56.3065 68.8765L55.0889 67.1391Z" fill="white"/>
<path d="M71.887 44.3291L76.0169 43.3364L71.8583 42.3998L72.157 41.8114L71.1498 41.8458L69.1909 41.8965L69.0103 41.8695L68.0289 41.9078L68.5156 42.5341L64.3253 43.7551L68.6848 44.4053L68.8397 44.4284L67.5027 46.4968L69.1924 45.2457L70.2651 49.5458L71.0893 45.0803L72.8648 46.0835L71.7169 44.4092L71.887 44.3291Z" fill="white"/>
<path d="M79.0074 83.2322L74.8526 82.2697L75.7487 80.5047L74.2072 81.6461L73.0559 77.5189L72.2702 81.7263C72.2702 81.7263 72.2509 81.8554 72.2394 81.9328L70.3713 81.0212L71.5719 82.5188L67.3815 83.7398L71.7153 84.3861L71.8701 84.4092L70.8104 86.3871L72.5039 85.1102L73.5767 89.4103L74.4266 84.9487L76.2317 85.9299L75.058 84.2518L79.0074 83.2322Z" fill="white"/>
<path d="M140.718 111.66L139.571 107.507L138.785 111.714C138.785 111.793 138.773 111.871 138.751 111.946L136.882 111.035L138.083 112.532L133.893 113.753L138.227 114.4L138.407 114.427L141.694 114.31L141.714 114.181L141.685 112.252L141.556 112.233L141.587 112.026L141.57 111.075L140.855 111.627L140.718 111.66Z" fill="white"/>
<path d="M107.681 75.9056L111.811 74.9129L107.652 73.9763L108.548 72.2113L107.029 73.3823L105.907 69.2332L105.095 73.4368C105.095 73.5154 105.083 73.5936 105.061 73.669L103.193 72.7575L104.393 74.255L100.203 75.476L104.562 76.1262L104.717 76.1493L103.632 78.1234L105.325 76.8464L106.42 81.1762L107.248 76.685L109.027 77.6623L107.875 76.0138L107.681 75.9056Z" fill="white"/>
<path d="M139.368 63.781L138.216 59.6538L137.43 63.8613C137.43 63.8613 137.411 63.9903 137.4 64.0677L135.557 63.16L136.758 64.6576L132.568 65.8786L136.901 66.525L137.056 66.548L135.993 68.5517L137.686 67.2749L138.759 71.575L139.609 67.1133L140.998 67.8744L141.052 67.5132L140.292 66.4241L141.001 66.2661L140.978 64.6541L140.255 64.5464L141.043 62.9762L139.595 64.0259L139.368 63.781Z" fill="white"/>
<path d="M135.955 42.0967L140.085 41.104L135.927 40.1673L136.225 39.579L135.218 39.6134L133.255 39.6898L133.101 39.6667L132.093 39.7011L132.576 40.3533L128.386 41.5743L132.746 42.2244L132.9 42.2475L131.841 44.2255L133.534 42.9486L134.603 47.2745L135.431 42.7832L137.236 43.7644L136.059 42.1121L135.955 42.0967Z" fill="white"/>
<path d="M82.7877 109.691L78.629 108.755L78.5001 108.736L79.3923 106.996L77.8767 108.142L76.7293 103.988L75.9435 108.196C75.943 108.275 75.9313 108.353 75.9089 108.428L74.0407 107.517L75.2413 109.014L71.051 110.235L75.4106 110.885L75.5654 110.908L74.4798 112.883L76.1734 111.606L77.2422 115.932L78.0961 111.444L79.8754 112.421L78.7236 110.773L82.7877 109.691Z" fill="white"/>
<path d="M60.2317 97.5461L56.0769 96.5838L55.9479 96.5645L56.844 94.7995L55.3283 95.9447L54.1771 91.8175L53.3914 96.0249L53.3606 96.2314L51.4924 95.3199L52.693 96.8174L48.5026 98.0383L52.8365 98.6847L52.9912 98.7078L51.9276 100.712L53.6212 99.4346L54.6939 103.735L55.5439 99.2731L57.3232 100.25L56.1752 98.5762L60.2317 97.5461Z" fill="white"/>
<path d="M39.1798 79.7447L42.2421 79.0148L39.1812 78.3209L39.8494 77.023L38.7229 77.857L37.886 74.8051L37.2915 77.9072L37.2684 78.062L35.9188 77.3861L36.7826 78.4906L33.6933 79.4011L36.892 79.8782L37.021 79.8974L36.2226 81.3605L37.4715 80.4129L38.2854 83.6196L38.7817 80.2918L40.0978 81.0156L39.2495 79.8079L39.1798 79.7447Z" fill="white"/>
<path d="M81.8241 61.5015L85.0487 61.9824L84.2541 63.4197L85.4992 62.4978L86.3169 65.6787L86.8132 62.3511L88.1293 63.0747L87.2848 61.8412L90.3214 61.1074L87.2604 60.4136L87.9286 59.1156L86.7983 59.9755L85.9613 56.9236L85.3669 60.0257C85.3669 60.0257 85.3669 60.0257 85.3438 60.1805L84.02 59.5084L84.8838 60.6129L81.8241 61.5015Z" fill="white"/>
<path d="M118.403 53.8773L119.071 52.5794L117.941 53.4392L117.104 50.3873L116.638 53.5087L116.615 53.6634L115.266 52.9875L116.129 54.092L113.04 55.0025L116.239 55.4796L116.265 55.4834L115.466 56.9466L116.711 56.0247L117.529 59.2056L118.025 55.8779L119.337 56.6274L118.493 55.3938L121.674 54.5761L118.613 53.8823L118.403 53.8773Z" fill="white"/>
<path d="M100.978 43.7627L100.18 45.2258L101.425 44.3039L102.242 47.4848L102.739 44.1571L104.055 44.8808L103.206 43.6731L106.269 42.9431L103.208 42.2493L103.876 40.9513L102.749 41.7854L102.457 40.7397L101.502 40.7818L101.344 41.8395L101.321 41.9942L99.9454 41.3145L100.835 42.4228L97.7457 43.3333L100.978 43.7627Z" fill="white"/>
<path d="M96.4863 96.1496L99.5228 95.4158L96.4619 94.722L97.1302 93.424L96.0037 94.2581L95.1667 91.2062L94.5722 94.3083C94.5722 94.3083 94.5722 94.3083 94.5491 94.4631L93.1738 93.7833L94.0374 94.8878L90.9482 95.7983L94.1727 96.2792L93.3744 97.7424L94.6233 96.7947L95.4372 100.001L95.9335 96.6737L97.2495 97.3973L96.4863 96.1496Z" fill="white"/>
<path d="M123.166 85.4143L126.203 84.6806L123.142 83.9868L123.784 82.685L122.654 83.5448L121.817 80.4929L121.223 83.595C121.223 83.595 121.223 83.595 121.2 83.7498L119.82 83.0958L120.684 84.2003L117.599 85.085L120.823 85.5659L120.054 87.0072L121.274 86.0814L122.091 89.2623L122.588 85.9346L123.904 86.6583L123.059 85.4248L123.166 85.4143Z" fill="white"/>
<path d="M127.592 103.294L124.531 102.6L125.2 101.302L124.073 102.136L123.236 99.0846L122.487 102.164C122.487 102.164 122.487 102.164 122.464 102.318L121.114 101.642L121.978 102.747L118.889 103.657L122.191 104.15L121.392 105.613L122.641 104.665L123.455 107.872L123.951 104.544L125.267 105.268L124.419 104.06L127.592 103.294Z" fill="white"/>
<path d="M140.513 88.6342L139.163 87.9582L140.027 89.0627L136.937 89.9732L140.059 90.4387L140.188 90.458L139.389 91.9211L140.638 90.9735L141.168 93.0829L141.142 90.6003L141.12 88.8039L141.07 85.6056L140.65 88.4174L140.513 88.6342Z" fill="white"/>
<path d="M109.002 114.788L109.671 113.49L108.54 114.35L107.703 111.298L107.109 114.4C107.112 114.453 107.104 114.505 107.086 114.555L105.706 113.901L106.596 115.009L103.481 115.916L107.034 115.786L108.864 115.716L112.258 115.59L109.171 114.892L109.002 114.788Z" fill="white"/>
<path d="M52.2806 45.6508L52.4096 45.67L51.6112 47.1332L52.8601 46.1854L53.674 49.3922L54.1703 46.0644L55.4863 46.7881L54.6419 45.5546L57.7042 44.8247L54.6432 44.1308L55.3115 42.8328L54.185 43.6669L53.8384 42.4549L52.9898 42.4866L52.8051 43.7248L52.782 43.8796L51.4325 43.2037L52.2962 44.3082L49.2069 45.2187L52.2806 45.6508Z" fill="white"/>
<path d="M31.119 45.5533L30.3465 47.0202L31.5915 46.0984L32.3835 49.2755L33.0088 45.9669L34.3468 46.7202L33.4765 45.4829L36.513 44.7491L33.5811 44.0745L34.0291 43.1921L33.6937 43.142L33.1009 43.581L32.9962 43.2225L31.7491 43.2739L31.6952 43.6351C31.6952 43.6351 31.6952 43.6351 31.6722 43.7898L30.6864 43.3264L30.4543 43.2918L31.1863 44.2184L28.0751 45.0993L31.119 45.5533Z" fill="white"/>
<g opacity="0.3">
<path opacity="0.3" d="M38.7903 46.554L48.2274 118.199L28.2607 115.574L13.9718 43.3183L38.7903 46.554Z" fill="black"/>
</g>
<path d="M27.4726 43.3219L33.0605 118.308L37.0635 118.167L34.4455 43.0698L27.4726 43.3219Z" fill="#455A64"/>
<path d="M94.5476 40.8979L84.9033 41.2359L87.5354 116.331L97.1796 115.993L94.5476 40.8979Z" fill="#455A64"/>
<path d="M50.1888 31.5733C50.1888 31.5733 58.5187 14.6202 62.149 14.5024C62.149 14.5024 75.0125 19.6644 82.7343 37.3765L88.9915 37.1494C90.4292 32.1769 92.9142 27.5696 96.2798 23.6369C99.6453 19.7042 103.814 16.5373 108.504 14.3487C108.504 14.3487 118.495 31.3444 118.814 31.1546C113.074 36.7596 105.533 40.1478 97.5308 40.7172C84.0535 41.7924 64.3869 41.0481 64.3869 41.0481C64.3869 41.0481 52.3285 36.3226 50.1888 31.5733Z" fill="#455A64"/>
<g opacity="0.3">
<path opacity="0.3" d="M92.2831 36.6106C92.2831 36.6106 105.897 32.1138 117.649 34.179C117.676 34.1859 105.293 41.1897 92.2831 36.6106Z" fill="black"/>
</g>
<g opacity="0.3">
<path opacity="0.3" d="M51.1396 31.3236C51.1396 31.3236 69.648 34.1594 80.0549 40.9583C80.0608 40.9096 62.7096 40.3044 51.1396 31.3236Z" fill="black"/>
</g>
</svg>
