<svg width="212" height="59" viewBox="0 0 212 59" fill="none" xmlns="http://www.w3.org/2000/svg">
<g clip-path="url(#clip0_28:2854)">
<path d="M13.8281 42.722H45.1719V59.3157H13.8281V42.722Z" fill="#FF416E"/>
<path d="M29.5 42.722H45.1719V59.3157H29.5V42.722Z" fill="#F00023"/>
<path d="M26.7344 42.722H32.2656V59.3157H26.7344V42.722Z" fill="#9BEBE6"/>
<path d="M29.5 42.722H32.2656V59.3157H29.5V42.722Z" fill="#5FE4DC"/>
<path d="M34.1094 39.0345H32.2656V38.1126C32.2707 33.4687 34.1178 29.0165 37.4015 25.7328C40.6852 22.4491 45.1374 20.6021 49.7812 20.597H50.7031V22.4407H49.7812C45.6262 22.4454 41.6427 24.098 38.7047 27.036C35.7666 29.9741 34.114 33.9576 34.1094 38.1126V39.0345Z" fill="#FFD723"/>
<path d="M23.0469 36.2688H21.2031V35.347C21.2004 33.1473 20.3254 31.0385 18.7701 29.4832C17.2147 27.9278 15.1059 27.0528 12.9062 27.0501H11.9844V25.2063H12.9062C15.5947 25.2095 18.1722 26.2789 20.0733 28.18C21.9743 30.081 23.0437 32.6585 23.0469 35.347V36.2688Z" fill="#FFED69"/>
<path d="M40.5625 37.1907C41.5808 37.1907 42.4062 36.3652 42.4062 35.347C42.4062 34.3287 41.5808 33.5032 40.5625 33.5032C39.5442 33.5032 38.7188 34.3287 38.7188 35.347C38.7188 36.3652 39.5442 37.1907 40.5625 37.1907Z" fill="#FFD723"/>
<path d="M42.4062 17.8313C43.4245 17.8313 44.25 17.0059 44.25 15.9876C44.25 14.9693 43.4245 14.1438 42.4062 14.1438C41.388 14.1438 40.5625 14.9693 40.5625 15.9876C40.5625 17.0059 41.388 17.8313 42.4062 17.8313Z" fill="#FF416E"/>
<path d="M49.7812 29.8157C50.7995 29.8157 51.625 28.9902 51.625 27.972C51.625 26.9537 50.7995 26.1282 49.7812 26.1282C48.763 26.1282 47.9375 26.9537 47.9375 27.972C47.9375 28.9902 48.763 29.8157 49.7812 29.8157Z" fill="#5FE4DC"/>
<path d="M15.6719 35.347C16.6902 35.347 17.5156 34.5215 17.5156 33.5032C17.5156 32.4849 16.6902 31.6595 15.6719 31.6595C14.6536 31.6595 13.8281 32.4849 13.8281 33.5032C13.8281 34.5215 14.6536 35.347 15.6719 35.347Z" fill="#5FE4DC"/>
<path d="M51.625 4.92508L53.1442 7.68056L56.2344 8.27425L54.0836 10.5706L54.4736 13.693L51.625 12.3563L48.7764 13.693L49.1664 10.5706L47.0156 8.27425L50.1058 7.68056L51.625 4.92508Z" fill="#FFD723"/>
<path d="M29.5 21.8802L30.715 24.0844L33.1875 24.5592L31.4664 26.3965L31.7789 28.8938L29.5 27.8254L27.2211 28.8938L27.5336 26.3965L25.8125 24.5592L28.285 24.0844L29.5 21.8802Z" fill="#FFED69"/>
<path d="M31.7789 28.8938L31.4664 26.3965L33.1875 24.5592L30.715 24.0844L29.5 21.8802V27.8254L31.7789 28.8938Z" fill="#FFD723"/>
<path d="M12.59 40.2993L12.1162 39.5092C11.3514 38.2426 10.2733 37.1943 8.98581 36.4653C7.6983 35.7363 6.24474 35.3512 4.76517 35.347H2.76562V33.5032H4.76517C6.56273 33.5083 8.32869 33.9762 9.89295 34.8618C11.4572 35.7474 12.767 37.0209 13.6963 38.5597L14.1711 39.3507L12.59 40.2993Z" fill="#FFED69"/>
<path d="M45.584 40.2716L43.9348 39.4465L44.3469 38.6224C45.249 36.8028 46.643 35.2723 48.3706 34.2045C50.0983 33.1368 52.0906 32.5745 54.1215 32.5813H56.2345V34.4251H54.1215C52.4342 34.4203 50.7792 34.8882 49.3441 35.7756C47.909 36.6631 46.7511 37.9348 46.0017 39.4465L45.584 40.2716Z" fill="#FFD723"/>
<path d="M2.76807 17.7258L34.8272 9.13028L36.2598 14.4735L4.20066 23.069L2.76807 17.7258Z" fill="#FF6E91"/>
<path d="M18.7966 13.4269L34.8262 9.12911L36.2588 14.4723L20.2292 18.7701L18.7966 13.4269Z" fill="#FF416E"/>
<path d="M26.5842 7.45655C26.4091 6.45689 25.8761 5.55516 25.0847 4.91981C24.2933 4.28446 23.2977 3.95897 22.2838 4.00414C21.27 4.04931 20.3072 4.46206 19.5755 5.16527C18.8437 5.86847 18.393 6.81404 18.3076 7.8253L18.078 10.7596L16.4094 8.32772C15.9982 7.73872 15.4421 7.26568 14.7947 6.95425C14.1474 6.64282 13.4307 6.50353 12.7138 6.54981C11.9969 6.5961 11.3041 6.8264 10.7022 7.21849C10.1003 7.61057 9.6096 8.15121 9.27751 8.7882C8.94543 9.42519 8.78317 10.137 8.80638 10.855C8.82959 11.573 9.0375 12.2729 9.41003 12.8871C9.78256 13.5013 10.3071 14.0091 10.9331 14.3615C11.5591 14.7139 12.2654 14.899 12.9837 14.8988C13.1091 14.8988 13.2345 14.8933 13.3608 14.8813L19.0368 14.3282L24.2334 11.9627C25.068 11.5755 25.7512 10.9232 26.1766 10.1074C26.6019 9.29152 26.7455 8.35791 26.5851 7.45194L26.5842 7.45655ZM13.1893 13.0459C12.7818 13.084 12.3715 13.0124 12.001 12.8385C11.6758 12.688 11.3895 12.4646 11.1645 12.1858C10.9394 11.9069 10.7816 11.58 10.7031 11.2303C10.6247 10.8806 10.6278 10.5176 10.7122 10.1693C10.7966 9.82105 10.96 9.49687 11.1898 9.22188C11.4196 8.94689 11.7096 8.72849 12.0373 8.58357C12.3651 8.43865 12.7218 8.37111 13.0798 8.38618C13.4378 8.40125 13.7876 8.49852 14.102 8.67047C14.4164 8.84241 14.6871 9.08442 14.8929 9.37774L17.1469 12.6633L13.1893 13.0459ZM24.3809 9.52063C24.1466 9.85404 23.8287 10.1199 23.459 10.2913L19.8323 11.9424L20.143 7.97833C20.1864 7.46636 20.3981 6.98315 20.7449 6.6041C21.0918 6.22504 21.5544 5.97146 22.0605 5.88291C22.1969 5.85894 22.3351 5.84691 22.4735 5.84696C22.9002 5.84773 23.3186 5.96547 23.6831 6.18737C24.0476 6.40927 24.3443 6.72685 24.5409 7.10557C24.7375 7.48429 24.8266 7.90967 24.7984 8.33546C24.7701 8.76125 24.6258 9.17116 24.3809 9.52063Z" fill="#C6F4F3"/>
<path d="M26.5843 7.45655C26.4092 6.45689 25.8762 5.55516 25.0848 4.91981C24.2934 4.28446 23.2978 3.95897 22.2839 4.00414C21.2701 4.04931 20.3073 4.46206 19.5756 5.16527C18.8438 5.86847 18.3931 6.81404 18.3077 7.8253L18.0781 10.7596L19.036 14.3328L24.2326 11.9673C25.0672 11.5801 25.7504 10.9278 26.1758 10.112C26.6011 9.29613 26.7447 8.36252 26.5843 7.45655ZM24.381 9.52063C24.1467 9.85404 23.8288 10.1199 23.4591 10.2913L19.8325 11.9424L20.1431 7.97833C20.1865 7.46636 20.3982 6.98315 20.7451 6.6041C21.0919 6.22504 21.5545 5.97146 22.0606 5.88291C22.197 5.85894 22.3352 5.84691 22.4736 5.84696C22.9004 5.84773 23.3187 5.96547 23.6832 6.18737C24.0477 6.40927 24.3444 6.72685 24.541 7.10557C24.7376 7.48429 24.8267 7.90967 24.7985 8.33546C24.7703 8.76125 24.6259 9.17116 24.381 9.52063Z" fill="#9BEBE6"/>
</g>
<path d="M60.6331 50.5671C61.1111 52.2954 62.4073 53.1595 64.5216 53.1595C65.8821 53.1595 66.9117 52.6998 67.6103 51.7806L70.4784 53.4353C69.1179 55.4025 67.1139 56.3861 64.4664 56.3861C62.1866 56.3861 60.3573 55.6966 58.9784 54.3177C57.5995 52.9388 56.9101 51.2014 56.9101 49.1055C56.9101 47.028 57.5903 45.2998 58.9508 43.9209C60.3113 42.5236 62.058 41.8249 64.1906 41.8249C66.213 41.8249 67.8769 42.5236 69.1823 43.9209C70.506 45.3181 71.1679 47.0464 71.1679 49.1055C71.1679 49.5651 71.1219 50.0524 71.03 50.5671H60.6331ZM60.5779 47.8094H67.6103C67.4081 46.8717 66.9852 46.1731 66.3417 45.7134C65.7166 45.2538 64.9996 45.024 64.1906 45.024C63.2346 45.024 62.444 45.2722 61.8189 45.7686C61.1938 46.2466 60.7802 46.9269 60.5779 47.8094ZM82.9727 56.3861C80.0678 56.3861 77.6686 55.4209 75.7749 53.4904C73.8812 51.56 72.9344 49.1791 72.9344 46.3477C72.9344 43.498 73.8812 41.1171 75.7749 39.205C77.6686 37.2746 80.0678 36.3094 82.9727 36.3094C84.7193 36.3094 86.328 36.723 87.7989 37.5504C89.2881 38.3593 90.4463 39.4624 91.2737 40.8597L87.9919 42.7626C87.5139 41.8985 86.8336 41.2274 85.9511 40.7494C85.0686 40.253 84.0758 40.0048 82.9727 40.0048C81.0974 40.0048 79.5806 40.5931 78.4224 41.7698C77.2825 42.9464 76.7125 44.4724 76.7125 46.3477C76.7125 48.2046 77.2825 49.7214 78.4224 50.8981C79.5806 52.0747 81.0974 52.6631 82.9727 52.6631C84.0758 52.6631 85.0686 52.4241 85.9511 51.946C86.852 51.4496 87.5323 50.7786 87.9919 49.9329L91.2737 51.8357C90.4463 53.233 89.2973 54.3453 87.8264 55.1727C86.3556 55.9816 84.7377 56.3861 82.9727 56.3861ZM114.345 56V35.8681H117.903V56H114.345ZM124.165 50.5671C124.643 52.2954 125.939 53.1595 128.053 53.1595C129.414 53.1595 130.443 52.6998 131.142 51.7806L134.01 53.4353C132.649 55.4025 130.645 56.3861 127.998 56.3861C125.718 56.3861 123.889 55.6966 122.51 54.3177C121.131 52.9388 120.442 51.2014 120.442 49.1055C120.442 47.028 121.122 45.2998 122.482 43.9209C123.843 42.5236 125.59 41.8249 127.722 41.8249C129.745 41.8249 131.408 42.5236 132.714 43.9209C134.038 45.3181 134.699 47.0464 134.699 49.1055C134.699 49.5651 134.653 50.0524 134.562 50.5671H124.165ZM124.11 47.8094H131.142C130.94 46.8717 130.517 46.1731 129.873 45.7134C129.248 45.2538 128.531 45.024 127.722 45.024C126.766 45.024 125.976 45.2722 125.351 45.7686C124.725 46.2466 124.312 46.9269 124.11 47.8094ZM144.85 41.8249C146.357 41.8249 147.598 42.3305 148.573 43.3417C149.565 44.3529 150.062 45.7502 150.062 47.5336V56H146.504V47.9748C146.504 47.0556 146.256 46.3569 145.76 45.8789C145.263 45.3825 144.601 45.1343 143.774 45.1343C142.855 45.1343 142.119 45.4193 141.568 45.9892C141.016 46.5592 140.741 47.4141 140.741 48.554V56H137.183V42.211H140.741V43.7554C141.605 42.4684 142.974 41.8249 144.85 41.8249ZM163.552 36.6954H167.109V56H163.552V54.3729C162.504 55.715 161.014 56.3861 159.084 56.3861C157.227 56.3861 155.637 55.6875 154.313 54.2902C153.008 52.8745 152.355 51.1463 152.355 49.1055C152.355 47.0648 153.008 45.3457 154.313 43.9484C155.637 42.5328 157.227 41.8249 159.084 41.8249C161.014 41.8249 162.504 42.496 163.552 43.8381V36.6954ZM156.988 51.9185C157.723 52.6355 158.643 52.994 159.746 52.994C160.849 52.994 161.759 52.6355 162.476 51.9185C163.193 51.1831 163.552 50.2454 163.552 49.1055C163.552 47.9656 163.193 47.0372 162.476 46.3201C161.759 45.5847 160.849 45.217 159.746 45.217C158.643 45.217 157.723 45.5847 156.988 46.3201C156.271 47.0372 155.912 47.9656 155.912 49.1055C155.912 50.2454 156.271 51.1831 156.988 51.9185ZM173.92 44.5827C174.251 43.7002 174.794 43.0384 175.547 42.5971C176.319 42.1559 177.174 41.9353 178.112 41.9353V45.9065C177.027 45.7778 176.053 45.9984 175.189 46.5683C174.343 47.1383 173.92 48.0851 173.92 49.4089V56H170.363V42.211H173.92V44.5827ZM181.958 40.5564C181.369 40.5564 180.855 40.3449 180.413 39.9221C179.99 39.4808 179.779 38.966 179.779 38.3777C179.779 37.7894 179.99 37.2746 180.413 36.8333C180.855 36.3921 181.369 36.1715 181.958 36.1715C182.564 36.1715 183.079 36.3921 183.502 36.8333C183.943 37.2746 184.164 37.7894 184.164 38.3777C184.164 38.966 183.943 39.4808 183.502 39.9221C183.079 40.3449 182.564 40.5564 181.958 40.5564ZM180.193 56V42.211H183.75V56H180.193ZM190.012 50.5671C190.49 52.2954 191.787 53.1595 193.901 53.1595C195.261 53.1595 196.291 52.6998 196.99 51.7806L199.858 53.4353C198.497 55.4025 196.493 56.3861 193.846 56.3861C191.566 56.3861 189.737 55.6966 188.358 54.3177C186.979 52.9388 186.289 51.2014 186.289 49.1055C186.289 47.028 186.97 45.2998 188.33 43.9209C189.691 42.5236 191.437 41.8249 193.57 41.8249C195.592 41.8249 197.256 42.5236 198.562 43.9209C199.885 45.3181 200.547 47.0464 200.547 49.1055C200.547 49.5651 200.501 50.0524 200.409 50.5671H190.012ZM189.957 47.8094H196.99C196.787 46.8717 196.364 46.1731 195.721 45.7134C195.096 45.2538 194.379 45.024 193.57 45.024C192.614 45.024 191.823 45.2722 191.198 45.7686C190.573 46.2466 190.159 46.9269 189.957 47.8094ZM206.588 44.5827C206.919 43.7002 207.462 43.0384 208.215 42.5971C208.987 42.1559 209.842 41.9353 210.78 41.9353V45.9065C209.695 45.7778 208.721 45.9984 207.857 46.5683C207.011 47.1383 206.588 48.0851 206.588 49.4089V56H203.031V42.211H206.588V44.5827Z" fill="white"/>
<path d="M182 41C183.657 41 185 39.6569 185 38C185 36.3431 183.657 35 182 35C180.343 35 179 36.3431 179 38C179 39.6569 180.343 41 182 41Z" fill="#FF416E"/>
<path d="M102 39L105.296 44.6568L112 45.8756L107.334 50.5899L108.18 57L102 54.2558L95.82 57L96.666 50.5899L92 45.8756L98.704 44.6568L102 39Z" fill="#FFD723"/>
<defs>
<clipPath id="clip0_28:2854">
<rect width="59" height="59" fill="white"/>
</clipPath>
</defs>
</svg>
