<svg width="20" height="20" viewBox="0 0 20 20" fill="none" xmlns="http://www.w3.org/2000/svg">
<g clip-path="url(#clip0_16:1130)">
<path d="M13.2813 0.769857C13.2813 0.345052 13.7012 0 14.2204 0C14.7396 0 15.1595 0.345052 15.1595 0.769857V4.14225C15.1595 4.56706 14.7396 4.91211 14.2204 4.91211C13.7012 4.91211 13.2813 4.56706 13.2813 4.14225V0.769857ZM10.1888 9.97721L11.1654 12.2412L13.6182 12.4609C13.644 12.463 13.6692 12.4701 13.6922 12.482C13.7152 12.4939 13.7357 12.5102 13.7523 12.53C13.769 12.5499 13.7816 12.5729 13.7893 12.5976C13.797 12.6223 13.7997 12.6484 13.7972 12.6742C13.7953 12.6994 13.7885 12.7241 13.777 12.7467C13.7656 12.7694 13.7498 12.7895 13.7305 12.806L11.8734 14.4336L12.4219 16.8343C12.4279 16.8595 12.4288 16.8857 12.4246 16.9113C12.4204 16.9369 12.4111 16.9614 12.3973 16.9834C12.3835 17.0053 12.3655 17.0243 12.3443 17.0393C12.3231 17.0542 12.2991 17.0647 12.2738 17.0703C12.2211 17.0814 12.1662 17.0714 12.1208 17.0426L10.0049 15.7829L7.889 17.0492C7.84401 17.0755 7.79045 17.0831 7.7399 17.0703C7.68935 17.0575 7.64586 17.0254 7.61882 16.9808C7.59227 16.9369 7.58408 16.8842 7.59603 16.8343L8.13802 14.4271L6.28255 12.7995C6.2466 12.7654 6.22467 12.7192 6.22106 12.6698C6.21745 12.6204 6.23241 12.5715 6.26302 12.5326C6.29942 12.4934 6.34964 12.4701 6.403 12.4674L8.8444 12.2493L9.82097 9.9821C9.83109 9.95824 9.84581 9.93661 9.86431 9.91845C9.8828 9.9003 9.9047 9.88597 9.92874 9.87629C9.95278 9.86662 9.97849 9.86178 10.0044 9.86206C10.0303 9.86234 10.0559 9.86773 10.0798 9.87793C10.1035 9.88732 10.125 9.90139 10.1432 9.91928C10.1614 9.93717 10.1758 9.95853 10.1856 9.9821L10.1888 9.97721ZM4.81934 0.769857C4.81934 0.345052 5.23926 0 5.75847 0C6.27767 0 6.69759 0.345052 6.69759 0.769857V4.14225C6.69759 4.56706 6.27767 4.91211 5.75847 4.91211C5.23926 4.91211 4.81934 4.56706 4.81934 4.14225V0.769857ZM1.04167 7.3763H18.9567V3.49447C18.9553 3.36829 18.9052 3.24755 18.8167 3.15755C18.7726 3.11318 18.7201 3.07797 18.6622 3.05395C18.6044 3.02993 18.5424 3.01757 18.4798 3.01758H16.7643C16.6959 3.01758 16.6282 3.00411 16.565 2.97793C16.5018 2.95176 16.4444 2.91339 16.396 2.86503C16.3477 2.81667 16.3093 2.75925 16.2831 2.69606C16.257 2.63287 16.2435 2.56514 16.2435 2.49674C16.2435 2.42835 16.257 2.36062 16.2831 2.29743C16.3093 2.23424 16.3477 2.17682 16.396 2.12846C16.4444 2.0801 16.5018 2.04173 16.565 2.01556C16.6282 1.98938 16.6959 1.97591 16.7643 1.97591H18.4815C18.8838 1.9772 19.2693 2.1376 19.5538 2.42211C19.8383 2.70661 19.9987 3.09212 20 3.49447V18.4814C19.9987 18.8838 19.8383 19.2693 19.5538 19.5538C19.2693 19.8383 18.8838 19.9987 18.4815 20H1.51856C1.11592 19.9987 0.730176 19.8381 0.445624 19.5532C0.161072 19.2684 0.000858262 18.8825 0 18.4798L0 3.49447C0.00128753 3.09212 0.161691 2.70661 0.446197 2.42211C0.730703 2.1376 1.11621 1.9772 1.51856 1.97591H3.35287C3.42126 1.97591 3.48899 1.98938 3.55218 2.01556C3.61537 2.04173 3.67279 2.0801 3.72115 2.12846C3.76951 2.17682 3.80788 2.23424 3.83405 2.29743C3.86023 2.36062 3.8737 2.42835 3.8737 2.49674C3.8737 2.56514 3.86023 2.63287 3.83405 2.69606C3.80788 2.75925 3.76951 2.81667 3.72115 2.86503C3.67279 2.91339 3.61537 2.95176 3.55218 2.97793C3.48899 3.00411 3.42126 3.01758 3.35287 3.01758H1.51856C1.39238 3.01895 1.27164 3.06911 1.18164 3.15755C1.13727 3.20172 1.10206 3.25422 1.07804 3.31204C1.05402 3.36986 1.04166 3.43186 1.04167 3.49447V7.3763ZM18.9567 8.4196H1.04167V18.4798C1.04304 18.606 1.0932 18.7267 1.18164 18.8167C1.22581 18.8611 1.27831 18.8963 1.33613 18.9203C1.39395 18.9444 1.45595 18.9567 1.51856 18.9567H18.4798C18.606 18.9553 18.7267 18.9052 18.8167 18.8167C18.8611 18.7726 18.8963 18.7201 18.9203 18.6622C18.9444 18.6044 18.9567 18.5424 18.9567 18.4798V8.4196ZM8.21452 3.01758C8.07639 3.01758 7.94391 2.9627 7.84624 2.86503C7.74856 2.76735 7.69369 2.63488 7.69369 2.49674C7.69369 2.35861 7.74856 2.22614 7.84624 2.12846C7.94391 2.03078 8.07639 1.97591 8.21452 1.97591H11.7041C11.8422 1.97591 11.9747 2.03078 12.0724 2.12846C12.1701 2.22614 12.2249 2.35861 12.2249 2.49674C12.2249 2.63488 12.1701 2.76735 12.0724 2.86503C11.9747 2.9627 11.8422 3.01758 11.7041 3.01758H8.21452Z" fill="white"/>
</g>
<defs>
<clipPath id="clip0_16:1130">
<rect width="19.9984" height="20" fill="white"/>
</clipPath>
</defs>
</svg>
